<?xml version="1.0" encoding="utf-8"?>
<!-- Generator: Adobe Illustrator 28.0.0, SVG Export Plug-In . SVG Version: 6.00 Build 0)  -->
<svg version="1.1" id="Laag_1" xmlns="http://www.w3.org/2000/svg" xmlns:xlink="http://www.w3.org/1999/xlink" x="0px" y="0px"
	 viewBox="0 0 1048.8 453.5" style="enable-background:new 0 0 1048.8 453.5;" xml:space="preserve">
<style type="text/css">
	.st0{fill:#F6AA59;}
	.st1{fill:#004879;}
	.st2{fill:#00B3DC;}
</style>
<polygon class="st0" points="319.7,85.5 161,188.6 161,281 319.7,177.9 "/>
<polygon class="st1" points="176.6,305.6 319.7,398.5 319.7,305.9 247.9,259.3 "/>
<polygon class="st2" points="131.8,54.9 54.2,107.3 54.2,350.3 131.8,299.9 131.8,251.3 131.8,207.6 "/>
<path class="st2" d="M491.1,229.1l55.1-62.5h-52.5l-47.4,54.8v-127l-42.8,27.8v183.1h42.8v-70.2h0.6l46.8,70.2h54L491.1,229.1z
	 M581.7,224.3c-0.3-3.4,0.1-6.8,1-10.1c1-3.3,2.6-6.3,4.8-9s5-5.1,8.4-7.1s7.4-3.3,12.1-4c7.7-1.1,14.4,0.6,20,5s8.8,10.2,9.6,17.4
	L581.7,224.3z M585.8,253.2l98.4-13.8l-1.9-13.3c-1.5-10.9-4.4-20.6-8.7-29s-9.6-15.4-16.1-20.9c-6.4-5.5-13.9-9.4-22.4-11.7
	s-17.6-2.7-27.4-1.3c-10.6,1.5-20.3,4.6-29.1,9.3c-8.9,4.7-16.3,10.7-22.3,18s-10.3,15.6-13.1,25c-2.7,9.4-3.3,19.6-1.8,30.5
	s4.9,20.5,10.1,28.8c5.2,8.3,11.7,15.1,19.5,20.5s16.5,9.1,26.4,11.1c9.8,2.1,20,2.4,30.5,0.9c11.1-1.6,21.5-5.4,31.2-11.6
	s17.3-14.1,22.9-23.7l-32.7-17.6c-2.9,5.4-6.5,10-10.9,13.8s-10,6.2-17,7.1c-8.3,1.2-15.6-0.3-21.9-4.3
	C593.2,267,588.6,261,585.8,253.2 M736.8,224.3c-0.3-3.4,0.1-6.8,1-10.1c1-3.3,2.6-6.3,4.8-9s5-5.1,8.4-7.1s7.4-3.3,12.1-4
	c7.7-1.1,14.4,0.6,20,5s8.8,10.2,9.6,17.4L736.8,224.3z M740.8,253.2l98.4-13.8l-1.9-13.3c-1.5-10.9-4.4-20.6-8.7-29
	s-9.6-15.4-16.1-20.9c-6.4-5.5-13.9-9.4-22.4-11.7s-17.6-2.7-27.4-1.3c-10.6,1.5-20.3,4.6-29.1,9.3c-8.9,4.7-16.3,10.7-22.3,18
	s-10.3,15.6-13.1,25c-2.7,9.4-3.3,19.6-1.8,30.5s4.9,20.5,10.1,28.8c5.2,8.3,11.7,15.1,19.5,20.5s16.5,9.1,26.4,11.1
	c9.8,2.1,20,2.4,30.5,0.9c11.1-1.6,21.5-5.4,31.2-11.6s17.3-14.1,22.9-23.7l-32.7-17.6c-2.9,5.4-6.5,10-10.9,13.8s-10,6.2-17,7.1
	c-8.3,1.2-15.6-0.3-21.9-4.3C748.3,267,743.7,261,740.8,253.2 M993.8,278.2v-49.4c0-9.3-0.7-18-2-26s-3.9-14.9-7.6-20.8
	c-3.7-5.9-8.9-10.5-15.6-13.8c-6.7-3.3-15.4-5-26.3-5c-5.1,0-9.9,0.7-14.3,2c-4.4,1.3-8.3,3-11.7,5.1s-6.4,4.5-8.8,7.1
	c-2.5,2.7-4.4,5.3-5.7,8h-0.6v-18.8h-41.1v138.7H903v-69.1c0-4.6,0.3-8.9,0.9-13.1c0.6-4.2,1.8-7.9,3.6-11.3c1.8-3.3,4.4-6,7.9-8
	c3.4-2,7.9-3,13.4-3s9.7,1.1,12.7,3.4c2.9,2.3,5.1,5.2,6.6,8.8c1.4,3.6,2.3,7.6,2.6,11.8c0.3,4.3,0.4,8.4,0.4,12.4v67.9h1
	L993.8,278.2z"/>
<path class="st1" d="M883.2,368.5c1.1,1.5,2.6,2.7,4.5,3.4c1.9,0.7,3.9,1.1,6,1.1c1.6,0,3.1-0.2,4.4-0.7s2.6-1.1,3.6-2
	s1.8-1.9,2.4-3.2c0.6-1.3,0.9-2.7,0.9-4.3c0-2-0.4-3.5-1.2-4.7c-0.8-1.1-1.8-2-3-2.7s-2.5-1.2-3.9-1.6s-2.7-0.8-3.9-1.3
	s-2.2-1.1-3-1.8c-0.8-0.7-1.2-1.8-1.2-3.2c0-0.5,0.1-1,0.3-1.6s0.5-1.1,1-1.6s1.1-0.9,2-1.3c0.8-0.3,1.8-0.5,3.1-0.5
	s2.5,0.3,3.5,0.8s1.8,1.2,2.4,2.1l3.6-3.3c-1.2-1.5-2.7-2.5-4.3-3s-3.3-0.7-5.1-0.7c-2,0-3.7,0.3-5.1,0.9c-1.4,0.6-2.6,1.4-3.4,2.2
	c-0.9,0.9-1.6,1.9-2,3s-0.6,2.1-0.6,3.1c0,2.1,0.4,3.8,1.2,5.1c0.8,1.3,1.8,2.2,3,3c1.2,0.7,2.5,1.3,3.9,1.7
	c1.4,0.4,2.7,0.8,3.9,1.3c1.2,0.4,2.2,1,3,1.7s1.2,1.6,1.2,2.9c0,0.9-0.2,1.7-0.6,2.4c-0.4,0.7-0.9,1.3-1.6,1.7
	c-0.6,0.5-1.3,0.8-2.1,1s-1.5,0.3-2.3,0.3c-1.3,0-2.6-0.3-3.9-0.9c-1.2-0.6-2.3-1.5-3.1-2.7L883.2,368.5z M856.4,372.2h4.4v-28.6
	h10.6v-4.2h-25.6v4.2h10.6V372.2z M803.3,372.2h4.4v-26.9h0.1l18.2,26.9h5.6v-32.8h-4.4v26.9h-0.1L809,339.4h-5.8L803.3,372.2
	L803.3,372.2z M767,360.2l6.2-15h0.1l6.1,15H767z M757,372.2h5.2l3.2-8.1H781l3.3,8.1h5.2l-14-32.8h-4L757,372.2z M735.4,372.2h4.4
	v-28.6h10.6v-4.2h-25.6v4.2h10.6V372.2z M698.7,372.2h19.5V368h-15v-28.6h-4.4L698.7,372.2L698.7,372.2z M656,339.4v20.8
	c0,1.9,0.3,3.7,1,5.2c0.6,1.6,1.5,2.9,2.7,4.1c1.1,1.1,2.5,2,4,2.6s3.2,0.9,5,0.9s3.5-0.3,5-0.9s2.9-1.5,4-2.6s2-2.5,2.7-4.1
	c0.6-1.6,1-3.3,1-5.2v-20.8H677v20.1c0,1-0.1,2.1-0.4,3.2c-0.3,1.1-0.7,2.1-1.4,3c-0.6,0.9-1.5,1.7-2.5,2.3c-1,0.6-2.3,0.9-3.9,0.9
	c-1.5,0-2.8-0.3-3.9-0.9c-1-0.6-1.9-1.3-2.5-2.3c-0.6-0.9-1.1-1.9-1.4-3c-0.3-1.1-0.4-2.2-0.4-3.2v-20.1H656z M619,368.5
	c1.1,1.5,2.6,2.7,4.5,3.4c1.9,0.7,3.9,1.1,6,1.1c1.6,0,3.1-0.2,4.4-0.7s2.6-1.1,3.6-2s1.8-1.9,2.4-3.2c0.6-1.3,0.9-2.7,0.9-4.3
	c0-2-0.4-3.5-1.2-4.7c-0.8-1.1-1.8-2-3-2.7s-2.5-1.2-3.9-1.6s-2.7-0.8-3.9-1.3s-2.2-1.1-3-1.8c-0.8-0.7-1.2-1.8-1.2-3.2
	c0-0.5,0.1-1,0.3-1.6s0.5-1.1,1-1.6s1.1-0.9,2-1.3c0.8-0.3,1.8-0.5,3.1-0.5s2.5,0.3,3.5,0.8s1.8,1.2,2.4,2.1l3.6-3.3
	c-1.2-1.5-2.7-2.5-4.3-3s-3.3-0.7-5.1-0.7c-2,0-3.7,0.3-5.1,0.9c-1.4,0.6-2.6,1.4-3.4,2.2c-0.9,0.9-1.6,1.9-2,3s-0.6,2.1-0.6,3.1
	c0,2.1,0.4,3.8,1.2,5.1c0.8,1.3,1.8,2.2,3,3c1.2,0.7,2.5,1.3,3.9,1.7c1.4,0.4,2.7,0.8,3.9,1.3c1.2,0.4,2.2,1,3,1.7s1.2,1.6,1.2,2.9
	c0,0.9-0.2,1.7-0.6,2.4c-0.4,0.7-0.9,1.3-1.6,1.7c-0.6,0.5-1.3,0.8-2.1,1s-1.5,0.3-2.3,0.3c-1.3,0-2.6-0.3-3.9-0.9
	c-1.2-0.6-2.3-1.5-3.1-2.7L619,368.5z M575.5,372.2h4.4v-26.9h0.1l18.2,26.9h5.6v-32.8h-4.4v26.9h-0.1l-18.1-26.9h-5.8L575.5,372.2
	L575.5,372.2z M537.6,367.8c-1.5-0.7-2.8-1.6-3.9-2.8c-1.1-1.2-1.9-2.6-2.5-4.1c-0.6-1.6-0.9-3.3-0.9-5.1c0-1.8,0.3-3.5,0.9-5.1
	c0.6-1.6,1.4-3,2.5-4.1c1.1-1.2,2.4-2.1,3.9-2.8s3.2-1,5.1-1c1.9,0,3.6,0.3,5.1,1s2.8,1.6,3.9,2.8c1.1,1.2,1.9,2.6,2.5,4.1
	c0.6,1.6,0.9,3.3,0.9,5.1c0,1.8-0.3,3.5-0.9,5.1c-0.6,1.6-1.4,3-2.5,4.1c-1.1,1.2-2.4,2.1-3.9,2.8s-3.2,1-5.1,1
	S539.1,368.5,537.6,367.8 M549.6,371.7c2.1-0.9,3.9-2.1,5.4-3.6s2.7-3.4,3.5-5.5s1.3-4.4,1.3-6.8s-0.4-4.7-1.3-6.8
	c-0.8-2.1-2-3.9-3.5-5.5c-1.5-1.5-3.3-2.8-5.4-3.6c-2.1-0.9-4.4-1.3-6.9-1.3s-4.8,0.4-6.9,1.3s-3.9,2.1-5.4,3.6s-2.7,3.4-3.5,5.5
	s-1.3,4.4-1.3,6.8s0.4,4.7,1.3,6.8c0.8,2.1,2,3.9,3.5,5.5c1.5,1.5,3.3,2.8,5.4,3.6c2.1,0.9,4.4,1.3,6.9,1.3S547.5,372.6,549.6,371.7
	 M513.3,343.7c-1.3-1.7-3-3-5.1-3.8s-4.2-1.3-6.4-1.3c-2.5,0-4.8,0.4-6.9,1.3s-3.9,2.1-5.4,3.6c-1.5,1.6-2.7,3.4-3.5,5.6
	c-0.8,2.1-1.3,4.5-1.3,7c0,2.1,0.4,4.1,1.2,6.1c0.8,2,1.9,3.8,3.4,5.4s3.2,2.9,5.3,3.9c2.1,1,4.4,1.5,7,1.5c1.9,0,3.5-0.2,5-0.7
	c1.4-0.5,2.7-1,3.7-1.7c1-0.6,1.8-1.3,2.5-1.9c0.6-0.6,1.1-1.1,1.3-1.5l-3.8-2.8c-1,1.4-2.2,2.5-3.6,3.2c-1.4,0.8-3.1,1.2-5,1.2
	s-3.6-0.3-5.1-1s-2.8-1.6-3.8-2.8c-1-1.2-1.9-2.5-2.4-4.1c-0.6-1.5-0.8-3.2-0.8-4.9c0-1.9,0.3-3.6,0.9-5.2s1.4-3,2.5-4.2
	s2.3-2.2,3.8-2.8c1.5-0.7,3.2-1,5-1c1.5,0,3,0.3,4.4,1c1.4,0.6,2.6,1.6,3.5,2.8L513.3,343.7z M434.7,372.2h4.4v-28.6h10.6v-4.2
	h-25.6v4.2h10.6V372.2z M405.7,372.2h4.4v-32.8h-4.4V372.2z"/>
</svg>
