<svg xmlns="http://www.w3.org/2000/svg" width="342.273" height="125.165" viewBox="0 0 342.273 125.165">
  <g id="keen-rgb" transform="translate(-54.2 -54.9)">
    <path id="Path_31" data-name="Path 31" d="M218.81,85.5,161,123.057v33.659l57.81-37.557Z" transform="translate(-67.895 -19.453)" fill="#f6aa59"/>
    <path id="Path_32" data-name="Path 32" d="M176.6,276.166l52.128,33.841V276.275L202.573,259.3Z" transform="translate(-77.813 -129.942)" fill="#fff"/>
    <path id="Path_33" data-name="Path 33" d="M82.468,54.9,54.2,73.988v88.519l28.268-18.359V54.9Z" transform="translate(0 0)" fill="#00b3dc"/>
    <path id="Path_34" data-name="Path 34" d="M435.41,143.468,455.482,120.7H436.358l-17.267,19.962V94.4L403.5,104.527v66.7h15.591V145.654h.219l17.048,25.572h19.671Zm33-1.749a10.47,10.47,0,0,1,.364-3.679,9.51,9.51,0,0,1,1.749-3.278,11.3,11.3,0,0,1,3.06-2.586,12.091,12.091,0,0,1,4.408-1.457,9.223,9.223,0,0,1,7.286,1.821,9.011,9.011,0,0,1,3.5,6.338Zm1.493,10.528,35.845-5.027-.692-4.845a32.915,32.915,0,0,0-3.169-10.564,24.283,24.283,0,0,0-5.865-7.613,20.618,20.618,0,0,0-8.16-4.262,24.551,24.551,0,0,0-9.981-.474,31.749,31.749,0,0,0-10.6,3.388,26.194,26.194,0,0,0-8.123,6.557,25.65,25.65,0,0,0-4.772,9.107,26.744,26.744,0,0,0-.656,11.11,26.264,26.264,0,0,0,3.679,10.491,25.325,25.325,0,0,0,16.72,11.511,31.478,31.478,0,0,0,11.11.328,28.358,28.358,0,0,0,11.365-4.226,25.192,25.192,0,0,0,8.342-8.633l-11.912-6.411a17.459,17.459,0,0,1-3.971,5.027,12.777,12.777,0,0,1-14.17,1.02,12.371,12.371,0,0,1-4.991-6.484m55.005-10.528a10.47,10.47,0,0,1,.364-3.679,9.511,9.511,0,0,1,1.748-3.278,11.3,11.3,0,0,1,3.06-2.586,12.092,12.092,0,0,1,4.408-1.457,9.223,9.223,0,0,1,7.286,1.821,9.011,9.011,0,0,1,3.5,6.338Zm1.457,10.528,35.845-5.027-.692-4.845a32.918,32.918,0,0,0-3.169-10.564,24.284,24.284,0,0,0-5.865-7.613,20.618,20.618,0,0,0-8.16-4.262,24.551,24.551,0,0,0-9.981-.474,31.749,31.749,0,0,0-10.6,3.388,26.2,26.2,0,0,0-8.123,6.557,25.65,25.65,0,0,0-4.772,9.107,26.746,26.746,0,0,0-.656,11.11,26.264,26.264,0,0,0,3.679,10.491,25.323,25.323,0,0,0,16.72,11.511,31.477,31.477,0,0,0,11.11.328,28.359,28.359,0,0,0,11.365-4.226,25.191,25.191,0,0,0,8.342-8.633L549.5,152.684a17.457,17.457,0,0,1-3.971,5.027,12.777,12.777,0,0,1-14.17,1.02,12.742,12.742,0,0,1-4.991-6.484m92.161,9.107v-18a59.168,59.168,0,0,0-.729-9.471,20.189,20.189,0,0,0-2.768-7.577,13.651,13.651,0,0,0-5.683-5.027,21.685,21.685,0,0,0-9.58-1.821,18.367,18.367,0,0,0-5.209.729,17.512,17.512,0,0,0-4.262,1.858,15.316,15.316,0,0,0-3.206,2.586,12.019,12.019,0,0,0-2.076,2.914H584.8V120.7H569.828v50.525h15.627V146.054a33.473,33.473,0,0,1,.328-4.772,12.41,12.41,0,0,1,1.311-4.116,7.372,7.372,0,0,1,2.878-2.914,9.593,9.593,0,0,1,4.881-1.093,7.438,7.438,0,0,1,4.626,1.239,7.861,7.861,0,0,1,2.4,3.206,14.8,14.8,0,0,1,.947,4.3c.109,1.566.146,3.06.146,4.517v24.734h.364Z" transform="translate(-222.059 -25.111)" fill="#00b3dc"/>
    <path id="Path_35" data-name="Path 35" d="M579.641,349.365a3.523,3.523,0,0,0,1.639,1.239,6.285,6.285,0,0,0,2.186.4,4.487,4.487,0,0,0,1.6-.255,4.19,4.19,0,0,0,1.311-.729,3.506,3.506,0,0,0,.874-1.166,3.655,3.655,0,0,0,.328-1.566,2.98,2.98,0,0,0-.437-1.712,3.538,3.538,0,0,0-1.093-.983,6.126,6.126,0,0,0-1.421-.583,13,13,0,0,1-1.421-.474,3.956,3.956,0,0,1-1.093-.656,1.485,1.485,0,0,1-.437-1.166,1.813,1.813,0,0,1,.109-.583,1.428,1.428,0,0,1,.364-.583,2.292,2.292,0,0,1,.729-.474,3.177,3.177,0,0,1,1.129-.182,2.857,2.857,0,0,1,1.275.291,2.227,2.227,0,0,1,.874.765l1.311-1.2a3.249,3.249,0,0,0-1.566-1.093,6.19,6.19,0,0,0-1.858-.255,4.71,4.71,0,0,0-1.858.328,4.044,4.044,0,0,0-1.238.8,3.028,3.028,0,0,0-.729,1.093,3.256,3.256,0,0,0-.219,1.129,3.157,3.157,0,0,0,1.53,2.951,6.216,6.216,0,0,0,1.421.619,12.989,12.989,0,0,1,1.421.474,3.178,3.178,0,0,1,1.093.619,1.3,1.3,0,0,1,.437,1.056,1.731,1.731,0,0,1-.219.874,1.591,1.591,0,0,1-.583.619,1.867,1.867,0,0,1-.765.364,3.31,3.31,0,0,1-.838.109,3.365,3.365,0,0,1-1.421-.328,2.917,2.917,0,0,1-1.129-.984Zm-9.763,1.348h1.6V340.294h3.861v-1.53h-9.325v1.53h3.861Zm-19.343,0h1.6v-9.8h.037l6.63,9.8h2.04V338.764h-1.6v9.8h-.036l-6.594-9.8H550.5l.036,11.948Zm-13.223-4.371,2.258-5.464h.036l2.222,5.464Zm-3.643,4.371h1.894l1.166-2.951h5.683l1.2,2.951h1.894l-5.1-11.948h-1.457Zm-7.868,0h1.6V340.294h3.861v-1.53H521.94v1.53H525.8Zm-13.369,0h7.1v-1.53h-5.464V338.764h-1.6l-.036,11.948Zm-15.555-11.948v7.577a4.509,4.509,0,0,0,.364,1.894,4.11,4.11,0,0,0,.984,1.494,4.378,4.378,0,0,0,1.457.947,5.222,5.222,0,0,0,3.643,0,4.38,4.38,0,0,0,1.457-.947,4.843,4.843,0,0,0,.983-1.494,5.311,5.311,0,0,0,.364-1.894v-7.577h-1.6v7.322a4.443,4.443,0,0,1-.146,1.166,3.01,3.01,0,0,1-.51,1.093,2.886,2.886,0,0,1-.911.838,2.735,2.735,0,0,1-1.421.328,2.924,2.924,0,0,1-1.421-.328,2.516,2.516,0,0,1-.911-.838,3.761,3.761,0,0,1-.51-1.093,4.443,4.443,0,0,1-.146-1.166v-7.322Zm-13.478,10.6a3.522,3.522,0,0,0,1.639,1.239,6.286,6.286,0,0,0,2.186.4,4.488,4.488,0,0,0,1.6-.255,4.189,4.189,0,0,0,1.311-.729,3.505,3.505,0,0,0,.874-1.166,3.652,3.652,0,0,0,.328-1.566,2.98,2.98,0,0,0-.437-1.712,3.54,3.54,0,0,0-1.093-.983,6.127,6.127,0,0,0-1.421-.583,13,13,0,0,1-1.421-.474,3.955,3.955,0,0,1-1.093-.656,1.485,1.485,0,0,1-.437-1.166,1.813,1.813,0,0,1,.109-.583,1.427,1.427,0,0,1,.364-.583,2.291,2.291,0,0,1,.729-.474,3.177,3.177,0,0,1,1.129-.182,2.858,2.858,0,0,1,1.275.291,2.227,2.227,0,0,1,.874.765l1.311-1.2a3.25,3.25,0,0,0-1.566-1.093,6.188,6.188,0,0,0-1.858-.255,4.71,4.71,0,0,0-1.858.328,4.047,4.047,0,0,0-1.239.8,3.029,3.029,0,0,0-.728,1.093,3.258,3.258,0,0,0-.219,1.129,3.157,3.157,0,0,0,1.53,2.951,6.216,6.216,0,0,0,1.421.619,12.99,12.99,0,0,1,1.421.474,3.179,3.179,0,0,1,1.093.619,1.3,1.3,0,0,1,.437,1.056,1.73,1.73,0,0,1-.219.874,1.59,1.59,0,0,1-.583.619,1.866,1.866,0,0,1-.765.364,3.31,3.31,0,0,1-.838.109,3.365,3.365,0,0,1-1.421-.328,2.917,2.917,0,0,1-1.129-.984Zm-15.846,1.348h1.6v-9.8h.036l6.63,9.8h2.04V338.764h-1.6v9.8h-.036l-6.593-9.8h-2.113l.036,11.948Zm-13.806-1.6a4.421,4.421,0,0,1-1.421-1.02,4.842,4.842,0,0,1-.911-1.494,5.429,5.429,0,0,1,0-3.716,4.12,4.12,0,0,1,.911-1.494,4.42,4.42,0,0,1,1.421-1.02,4.918,4.918,0,0,1,3.716,0,4.42,4.42,0,0,1,1.421,1.02,4.843,4.843,0,0,1,.911,1.494,5.429,5.429,0,0,1,0,3.716,4.12,4.12,0,0,1-.911,1.494,4.42,4.42,0,0,1-1.421,1.02,4.919,4.919,0,0,1-3.716,0m4.371,1.421a6.2,6.2,0,0,0,1.967-1.311,5.714,5.714,0,0,0,1.275-2,6.968,6.968,0,0,0,.474-2.477,6.252,6.252,0,0,0-.474-2.477,6.064,6.064,0,0,0-1.275-2,5.65,5.65,0,0,0-1.967-1.311,6.908,6.908,0,0,0-5.027,0,6.2,6.2,0,0,0-1.967,1.311,5.716,5.716,0,0,0-1.275,2,6.968,6.968,0,0,0-.474,2.477,6.252,6.252,0,0,0,.474,2.477,6.066,6.066,0,0,0,1.275,2,5.649,5.649,0,0,0,1.967,1.311,6.906,6.906,0,0,0,5.027,0m-13.223-10.2a4.174,4.174,0,0,0-1.858-1.384,6.5,6.5,0,0,0-2.331-.474,6.307,6.307,0,0,0-2.513.474,6.2,6.2,0,0,0-1.967,1.311,5.868,5.868,0,0,0-1.275,2.04,7.214,7.214,0,0,0-.474,2.55,5.889,5.889,0,0,0,.437,2.222,6.191,6.191,0,0,0,1.239,1.967,6.324,6.324,0,0,0,1.931,1.421,5.818,5.818,0,0,0,2.55.546,5.646,5.646,0,0,0,1.821-.255,5.777,5.777,0,0,0,1.348-.619,6.568,6.568,0,0,0,.911-.692,2.74,2.74,0,0,0,.474-.546l-1.384-1.02a3.732,3.732,0,0,1-3.133,1.6,4.34,4.34,0,0,1-1.858-.364,3.916,3.916,0,0,1-1.384-1.02,4.367,4.367,0,0,1-.874-1.493,4.833,4.833,0,0,1-.291-1.785,5.3,5.3,0,0,1,.328-1.894,4.616,4.616,0,0,1,.911-1.53,3.806,3.806,0,0,1,1.384-1.02,4.285,4.285,0,0,1,1.821-.364,3.555,3.555,0,0,1,1.6.364,3.178,3.178,0,0,1,1.275,1.02Zm-28.632,10.382h1.6V340.294h3.861v-1.53H412.4v1.53h3.861Zm-10.564,0h1.6V338.764h-1.6Z" transform="translate(-223.457 -180.228)" fill="#fff"/>
  </g>
</svg>
